<svg width="106" height="54" viewBox="0 0 106 54" fill="none" xmlns="http://www.w3.org/2000/svg">
<path d="M3.79199 43.4998V17.4358H9.07199V28.4758H8.92799C8.92799 24.7318 9.72799 21.8998 11.328 19.9798C12.928 18.0598 15.28 17.0998 18.384 17.0998H19.344V22.9078H17.52C15.28 22.9078 13.536 23.5158 12.288 24.7318C11.072 25.9158 10.464 27.6438 10.464 29.9158V43.4998H3.79199Z" fill="white"/>
<path d="M36.1481 44.4118C33.8441 44.4118 31.8121 44.0438 30.0521 43.3078C28.2921 42.5718 26.8041 41.5798 25.5881 40.3318C24.3721 39.0518 23.4441 37.6118 22.8041 36.0118C22.1961 34.4118 21.8921 32.7478 21.8921 31.0198V30.0118C21.8921 28.2198 22.2121 26.5238 22.8521 24.9238C23.5241 23.2918 24.4681 21.8518 25.6841 20.6038C26.9321 19.3238 28.4361 18.3318 30.1961 17.6278C31.9561 16.8918 33.9401 16.5238 36.1481 16.5238C38.3561 16.5238 40.3401 16.8918 42.1001 17.6278C43.8601 18.3318 45.3481 19.3238 46.5641 20.6038C47.8121 21.8518 48.7561 23.2918 49.3961 24.9238C50.0361 26.5238 50.3561 28.2198 50.3561 30.0118V31.0198C50.3561 32.7478 50.0361 34.4118 49.3961 36.0118C48.7881 37.6118 47.8761 39.0518 46.6601 40.3318C45.4441 41.5798 43.9561 42.5718 42.1961 43.3078C40.4361 44.0438 38.4201 44.4118 36.1481 44.4118ZM36.1481 38.6998C37.7801 38.6998 39.1561 38.3478 40.2761 37.6438C41.3961 36.9078 42.2441 35.9318 42.8201 34.7158C43.3961 33.4678 43.6841 32.0598 43.6841 30.4918C43.6841 28.8918 43.3801 27.4838 42.7721 26.2678C42.1961 25.0198 41.3321 24.0438 40.1801 23.3398C39.0601 22.6038 37.7161 22.2358 36.1481 22.2358C34.5801 22.2358 33.2201 22.6038 32.0681 23.3398C30.9481 24.0438 30.0841 25.0198 29.4761 26.2678C28.8681 27.4838 28.5641 28.8918 28.5641 30.4918C28.5641 32.0598 28.8521 33.4678 29.4281 34.7158C30.0361 35.9318 30.9001 36.9078 32.0201 37.6438C33.1401 38.3478 34.5161 38.6998 36.1481 38.6998Z" fill="white"/>
<path d="M68.7262 44.4118C66.4222 44.4118 64.3902 44.0438 62.6302 43.3078C60.8702 42.5718 59.3822 41.5798 58.1662 40.3318C56.9502 39.0518 56.0222 37.6118 55.3822 36.0118C54.7742 34.4118 54.4702 32.7478 54.4702 31.0198V30.0118C54.4702 28.2198 54.7902 26.5238 55.4302 24.9238C56.1022 23.2918 57.0462 21.8518 58.2622 20.6038C59.5102 19.3238 61.0142 18.3318 62.7742 17.6278C64.5342 16.8918 66.5182 16.5238 68.7262 16.5238C70.9342 16.5238 72.9182 16.8918 74.6782 17.6278C76.4382 18.3318 77.9262 19.3238 79.1422 20.6038C80.3902 21.8518 81.3342 23.2918 81.9742 24.9238C82.6142 26.5238 82.9342 28.2198 82.9342 30.0118V31.0198C82.9342 32.7478 82.6142 34.4118 81.9742 36.0118C81.3662 37.6118 80.4542 39.0518 79.2382 40.3318C78.0222 41.5798 76.5342 42.5718 74.7742 43.3078C73.0142 44.0438 70.9982 44.4118 68.7262 44.4118ZM68.7262 38.6998C70.3582 38.6998 71.7342 38.3478 72.8542 37.6438C73.9742 36.9078 74.8223 35.9318 75.3982 34.7158C75.9742 33.4678 76.2622 32.0598 76.2622 30.4918C76.2622 28.8918 75.9582 27.4838 75.3502 26.2678C74.7742 25.0198 73.9102 24.0438 72.7582 23.3398C71.6382 22.6038 70.2942 22.2358 68.7262 22.2358C67.1582 22.2358 65.7982 22.6038 64.6462 23.3398C63.5262 24.0438 62.6622 25.0198 62.0542 26.2678C61.4462 27.4838 61.1422 28.8918 61.1422 30.4918C61.1422 32.0598 61.4302 33.4678 62.0062 34.7158C62.6142 35.9318 63.4782 36.9078 64.5982 37.6438C65.7182 38.3478 67.0942 38.6998 68.7262 38.6998Z" fill="white"/>
<path d="M100.104 43.8358C97.7044 43.8358 95.7204 43.5318 94.1524 42.9238C92.6164 42.2838 91.4644 41.2278 90.6964 39.7558C89.9284 38.2518 89.5444 36.2358 89.5444 33.7078L89.5924 10.0918H95.8324L95.7844 34.1398C95.7844 35.4198 96.1204 36.4118 96.7924 37.1158C97.4964 37.7878 98.4884 38.1238 99.7684 38.1238H103.848V43.8358H100.104ZM85.4164 22.3318V17.4358H103.848V22.3318H85.4164Z" fill="white"/>
</svg>
