<svg width="106" height="53" viewBox="0 0 106 53" fill="none" xmlns="http://www.w3.org/2000/svg">
<path d="M3.79199 43V16.936H9.07199V27.976H8.92799C8.92799 24.232 9.72799 21.4 11.328 19.48C12.928 17.56 15.28 16.6 18.384 16.6H19.344V22.408H17.52C15.28 22.408 13.536 23.016 12.288 24.232C11.072 25.416 10.464 27.144 10.464 29.416V43H3.79199Z" fill="#212121"/>
<path d="M36.1481 43.912C33.8441 43.912 31.8121 43.544 30.0521 42.808C28.2921 42.072 26.8041 41.08 25.5881 39.832C24.3721 38.552 23.4441 37.112 22.8041 35.512C22.1961 33.912 21.8921 32.248 21.8921 30.52V29.512C21.8921 27.72 22.2121 26.024 22.8521 24.424C23.5241 22.792 24.4681 21.352 25.6841 20.104C26.9321 18.824 28.4361 17.832 30.1961 17.128C31.9561 16.392 33.9401 16.024 36.1481 16.024C38.3561 16.024 40.3401 16.392 42.1001 17.128C43.8601 17.832 45.3481 18.824 46.5641 20.104C47.8121 21.352 48.7561 22.792 49.3961 24.424C50.0361 26.024 50.3561 27.72 50.3561 29.512V30.52C50.3561 32.248 50.0361 33.912 49.3961 35.512C48.7881 37.112 47.8761 38.552 46.6601 39.832C45.4441 41.08 43.9561 42.072 42.1961 42.808C40.4361 43.544 38.4201 43.912 36.1481 43.912ZM36.1481 38.2C37.7801 38.2 39.1561 37.848 40.2761 37.144C41.3961 36.408 42.2441 35.432 42.8201 34.216C43.3961 32.968 43.6841 31.56 43.6841 29.992C43.6841 28.392 43.3801 26.984 42.7721 25.768C42.1961 24.52 41.3321 23.544 40.1801 22.84C39.0601 22.104 37.7161 21.736 36.1481 21.736C34.5801 21.736 33.2201 22.104 32.0681 22.84C30.9481 23.544 30.0841 24.52 29.4761 25.768C28.8681 26.984 28.5641 28.392 28.5641 29.992C28.5641 31.56 28.8521 32.968 29.4281 34.216C30.0361 35.432 30.9001 36.408 32.0201 37.144C33.1401 37.848 34.5161 38.2 36.1481 38.2Z" fill="#212121"/>
<path d="M68.7262 43.912C66.4222 43.912 64.3902 43.544 62.6302 42.808C60.8702 42.072 59.3822 41.08 58.1662 39.832C56.9502 38.552 56.0222 37.112 55.3822 35.512C54.7742 33.912 54.4702 32.248 54.4702 30.52V29.512C54.4702 27.72 54.7902 26.024 55.4302 24.424C56.1022 22.792 57.0462 21.352 58.2622 20.104C59.5102 18.824 61.0142 17.832 62.7742 17.128C64.5342 16.392 66.5182 16.024 68.7262 16.024C70.9342 16.024 72.9182 16.392 74.6782 17.128C76.4382 17.832 77.9262 18.824 79.1422 20.104C80.3902 21.352 81.3342 22.792 81.9742 24.424C82.6142 26.024 82.9342 27.72 82.9342 29.512V30.52C82.9342 32.248 82.6142 33.912 81.9742 35.512C81.3662 37.112 80.4542 38.552 79.2382 39.832C78.0222 41.08 76.5342 42.072 74.7742 42.808C73.0142 43.544 70.9982 43.912 68.7262 43.912ZM68.7262 38.2C70.3582 38.2 71.7342 37.848 72.8542 37.144C73.9742 36.408 74.8223 35.432 75.3982 34.216C75.9742 32.968 76.2622 31.56 76.2622 29.992C76.2622 28.392 75.9582 26.984 75.3502 25.768C74.7742 24.52 73.9102 23.544 72.7582 22.84C71.6382 22.104 70.2942 21.736 68.7262 21.736C67.1582 21.736 65.7982 22.104 64.6462 22.84C63.5262 23.544 62.6622 24.52 62.0542 25.768C61.4462 26.984 61.1422 28.392 61.1422 29.992C61.1422 31.56 61.4302 32.968 62.0062 34.216C62.6142 35.432 63.4782 36.408 64.5982 37.144C65.7182 37.848 67.0942 38.2 68.7262 38.2Z" fill="#212121"/>
<path d="M100.104 43.336C97.7044 43.336 95.7204 43.032 94.1524 42.424C92.6164 41.784 91.4644 40.728 90.6964 39.256C89.9284 37.752 89.5444 35.736 89.5444 33.208L89.5924 9.59201H95.8324L95.7844 33.64C95.7844 34.92 96.1204 35.912 96.7924 36.616C97.4964 37.288 98.4884 37.624 99.7684 37.624H103.848V43.336H100.104ZM85.4164 21.832V16.936H103.848V21.832H85.4164Z" fill="#212121"/>
</svg>
