<svg xmlns="http://www.w3.org/2000/svg" width="172" height="30" viewBox="0 0 172 30">
    <g fill="none" fill-rule="evenodd">
        <g>
            <g transform="translate(-48 -15) translate(48 15)">
                <g fill="#FFF" fill-rule="nonzero">
                    <path d="M0 9.172C0 3.881 3.898 0 9.426 0c5.527 0 9.35 3.881 9.35 9.172v1.236H3.535c.5 3.107 2.832 4.83 5.878 4.83 2.269 0 3.86-.712 4.888-2.222h3.723c-1.341 3.244-4.537 5.328-8.611 5.328C3.886 18.344 0 14.464 0 9.172zm15.229-1.76c-.677-2.782-2.97-4.305-5.816-4.305-2.908 0-5.101 1.548-5.778 4.306h11.594zM46.05 9.172C46.05 3.881 49.948 0 55.475 0c5.528 0 9.426 3.881 9.426 9.172s-3.898 9.172-9.426 9.172c-5.527 0-9.425-3.88-9.425-9.172zm15.441 0c0-3.531-2.406-6.065-6.028-6.065-3.61 0-6.03 2.546-6.03 6.065 0 3.52 2.407 6.065 6.03 6.065 3.622 0 6.028-2.533 6.028-6.065zM69.438 8.823C69.438 3.007 72.91 0 78.086 0c5.177 0 8.649 2.958 8.649 8.823v9.072h-3.372V8.823c0-3.769-2.093-5.716-5.277-5.716-3.183 0-5.276 1.935-5.276 5.716v9.072h-3.372V8.823zM91.623 9.172C91.623 3.881 95.521 0 101.05 0c5.527 0 9.35 3.881 9.35 9.172v1.236H95.158c.501 3.107 2.832 4.83 5.878 4.83 2.269 0 3.86-.712 4.888-2.222h3.723c-1.341 3.244-4.537 5.328-8.611 5.328-5.515 0-9.413-3.88-9.413-9.172zm15.241-1.76c-.677-2.782-2.97-4.305-5.815-4.305-2.908 0-5.102 1.548-5.779 4.306h11.594zM119.937 9.035L113.307.462 117.456.462 122.457 7.275 127.458.462 131.494.462 124.838 9.035 131.782 17.895 127.633 17.895 122.356 10.77 117.079 17.895 113.044 17.895zM42.026 20.853l-3.61-4.43c2.144-1.635 3.422-4.206 3.422-7.25C41.838 3.88 37.94 0 32.413 0c-5.528 0-9.426 3.881-9.426 9.172s3.898 9.172 9.426 9.172c1.203 0 2.331-.187 3.346-.524l2.482 3.033h3.785zM26.384 9.173c0-3.532 2.406-6.066 6.029-6.066 3.61 0 6.029 2.546 6.029 6.065 0 3.52-2.407 6.065-6.03 6.065-3.622 0-6.028-2.533-6.028-6.065z" transform="translate(39.457 5.628)"/>
                </g>
                <ellipse cx="15.028" cy="15" fill="#FFF" fill-rule="nonzero" rx="13.211" ry="13.153"/>
                <path fill="#05ACBB" fill-rule="nonzero" d="M15.066 0C6.743 0 0 6.714 0 15s6.743 15 15.066 15c8.322 0 15.066-6.714 15.066-15-.013-8.286-6.756-15-15.066-15zm-.038 26.181c-6.204 0-11.23-5.004-11.23-11.181S8.824 3.819 15.028 3.819c6.204 0 11.23 5.004 11.23 11.181s-5.026 11.181-11.23 11.181z"/>
                <ellipse cx="15.028" cy="15" rx="11.23" ry="11.181"/>
                <g fill="#E4087E" fill-rule="nonzero">
                    <path d="M15.592 7.762C15.592 3.47 12.095 0 7.796 0 5.59 0 3.61.911 2.193 2.371l13.098 7.55c.188-.699.301-1.423.301-2.159zM13.399 13.153L.3 5.603C.1 6.29 0 7.013 0 7.763c0 4.292 3.497 7.761 7.796 7.761.627 0 1.241-.075 1.818-.212l5.64 3.245 2.908-2.658-4.763-2.746z" transform="translate(7.27 7.238)"/>
                </g>
                <path fill="#05ACBB" fill-rule="nonzero" d="M15.066 0C6.743 0 0 6.714 0 15s6.743 15 15.066 15c8.322 0 15.066-6.714 15.066-15-.013-8.286-6.756-15-15.066-15zm-.038 26.181c-6.204 0-11.23-5.004-11.23-11.181S8.824 3.819 15.028 3.819c6.204 0 11.23 5.004 11.23 11.181s-5.026 11.181-11.23 11.181z"/>
            </g>
        </g>
    </g>
</svg>
